HIERARCHY
ROOT Root
{
  OFFSET 0.0 0.0 0.0
  CHANNELS 6 Xposition Yposition Zposition Zrotation Yrotation Xrotation
  JOINT Hips
  {
    OFFSET 0.0 100.0 0.0
    CHANNELS 6 Xposition Yposition Zposition Zrotation Yrotation Xrotation
    JOINT Spine1
    {
      OFFSET 5.003913 -0.037094 -0.013727
      CHANNELS 3 Zrotation Yrotation Xrotation
      JOINT Spine2
      {
        OFFSET 7.125363 -1e-06 0.0
        CHANNELS 3 Zrotation Yrotation Xrotation
        JOINT Chest
        {
          OFFSET 7.594027 1e-06 0.0
          CHANNELS 3 Zrotation Yrotation Xrotation
          JOINT Neck1
          {
            OFFSET 26.313086 -0.460272 -0.181672
            CHANNELS 3 Zrotation Yrotation Xrotation
            JOINT Neck2
            {
              OFFSET 8.045911 0.0 0.0
              CHANNELS 3 Zrotation Yrotation Xrotation
              JOINT Head
              {
                OFFSET 6.432774 0.0 0.0
                CHANNELS 3 Zrotation Yrotation Xrotation
                JOINT HeadEnd
                {
                  OFFSET 16.169773 0.06451 0.00362
                  CHANNELS 3 Zrotation Yrotation Xrotation
                }
                JOINT Jaw
                {
                  OFFSET 0.108741 3.12938 0.002639
                  CHANNELS 3 Zrotation Yrotation Xrotation
                }
                JOINT LeftEye
                {
                  OFFSET 4.45173 8.166359 3.206392
                  CHANNELS 3 Zrotation Yrotation Xrotation
                }
                JOINT RightEye
                {
                  OFFSET 4.436895 8.135758 -3.222429
                  CHANNELS 3 Zrotation Yrotation Xrotation
                }
              }
            }
          }
          JOINT LeftShoulder
          {
            OFFSET 23.218927 5.195579 1.621656
            CHANNELS 3 Zrotation Yrotation Xrotation
            JOINT LeftArm
            {
              OFFSET 15.902118 2e-06 -2e-06
              CHANNELS 3 Zrotation Yrotation Xrotation
              JOINT LeftForeArm
              {
                OFFSET 28.739307 0.0 -1e-06
                CHANNELS 3 Zrotation Yrotation Xrotation
                JOINT LeftHand
                {
                  OFFSET 27.093981 -4e-06 0.0
                  CHANNELS 3 Zrotation Yrotation Xrotation
                  JOINT LeftHandThumb1
                  {
                    OFFSET 2.276781 3.380274 0.83384
                    CHANNELS 3 Zrotation Yrotation Xrotation
                    JOINT LeftHandThumb2
                    {
                      OFFSET 4.705309 -1e-06 -1e-06
                      CHANNELS 3 Zrotation Yrotation Xrotation
                      JOINT LeftHandThumb3
                      {
                        OFFSET 2.798515 0.0 3e-06
                        CHANNELS 3 Zrotation Yrotation Xrotation
                        JOINT LeftHandThumbEnd
                        {
                          OFFSET 3.180793 4e-06 -4e-06
                          CHANNELS 3 Zrotation Yrotation Xrotation
                        }
                      }
                    }
                  }
                  JOINT LeftHandIndex1
                  {
                    OFFSET 3.247786 2.352677 0.137192
                    CHANNELS 3 Zrotation Yrotation Xrotation
                    JOINT LeftHandIndex2
                    {
                      OFFSET 6.367095 1e-06 0.0
                      CHANNELS 3 Zrotation Yrotation Xrotation
                      JOINT LeftHandIndex3
                      {
                        OFFSET 3.662364 0.0 0.0
                        CHANNELS 3 Zrotation Yrotation Xrotation
                        JOINT LeftHandIndex4
                        {
                          OFFSET 2.329242 4e-06 -4e-06
                          CHANNELS 3 Zrotation Yrotation Xrotation
                          JOINT LeftHandIndexEnd
                          {
                            OFFSET 2.767823 1e-06 0.0
                            CHANNELS 3 Zrotation Yrotation Xrotation
                          }
                        }
                      }
                    }
                  }
                  JOINT LeftHandMiddle1
                  {
                    OFFSET 3.163612 0.945023 -0.406112
                    CHANNELS 3 Zrotation Yrotation Xrotation
                    JOINT LeftHandMiddle2
                    {
                      OFFSET 6.276789 3e-06 0.0
                      CHANNELS 3 Zrotation Yrotation Xrotation
                      JOINT LeftHandMiddle3
                      {
                        OFFSET 4.35652 -1e-06 4e-06
                        CHANNELS 3 Zrotation Yrotation Xrotation
                        JOINT LeftHandMiddle4
                        {
                          OFFSET 2.996877 0.0 8e-06
                          CHANNELS 3 Zrotation Yrotation Xrotation
                          JOINT LeftHandMiddleEnd
                          {
                            OFFSET 2.323256 3e-06 -4e-06
                            CHANNELS 3 Zrotation Yrotation Xrotation
                          }
                        }
                      }
                    }
                  }
                  JOINT LeftHandRing1
                  {
                    OFFSET 2.882606 -0.309162 0.107445
                    CHANNELS 3 Zrotation Yrotation Xrotation
                    JOINT LeftHandRing2
                    {
                      OFFSET 6.033198 0.0 4e-06
                      CHANNELS 3 Zrotation Yrotation Xrotation
                      JOINT LeftHandRing3
                      {
                        OFFSET 4.350578 3e-06 0.0
                        CHANNELS 3 Zrotation Yrotation Xrotation
                        JOINT LeftHandRing4
                        {
                          OFFSET 2.651321 2e-06 -7e-06
                          CHANNELS 3 Zrotation Yrotation Xrotation
                          JOINT LeftHandRingEnd
                          {
                            OFFSET 1.937663 1e-06 -4e-06
                            CHANNELS 3 Zrotation Yrotation Xrotation
                          }
                        }
                      }
                    }
                  }
                  JOINT LeftHandPinky1
                  {
                    OFFSET 2.865315 -1.525436 0.575687
                    CHANNELS 3 Zrotation Yrotation Xrotation
                    JOINT LeftHandPinky2
                    {
                      OFFSET 5.54936 1e-06 -8e-06
                      CHANNELS 3 Zrotation Yrotation Xrotation
                      JOINT LeftHandPinky3
                      {
                        OFFSET 3.070974 0.0 -4e-06
                        CHANNELS 3 Zrotation Yrotation Xrotation
                        JOINT LeftHandPinky4
                        {
                          OFFSET 1.549672 1e-06 0.0
                          CHANNELS 3 Zrotation Yrotation Xrotation
                          JOINT LeftHandPinkyEnd
                          {
                            OFFSET 1.952123 0.0 0.0
                            CHANNELS 3 Zrotation Yrotation Xrotation
                          }
                        }
                      }
                    }
                  }
                }
              }
            }
          }
          JOINT RightShoulder
          {
            OFFSET 23.161716 5.296122 -1.380114
            CHANNELS 3 Zrotation Yrotation Xrotation
            JOINT RightArm
            {
              OFFSET -16.027195 -2e-06 1.1e-05
              CHANNELS 3 Zrotation Yrotation Xrotation
              JOINT RightForeArm
              {
                OFFSET -28.736639 4e-06 2e-06
                CHANNELS 3 Zrotation Yrotation Xrotation
                JOINT RightHand
                {
                  OFFSET -27.133619 6e-06 0.0
                  CHANNELS 3 Zrotation Yrotation Xrotation
                  JOINT RightHandThumb1
                  {
                    OFFSET -2.274328 -3.351035 -0.83067
                    CHANNELS 3 Zrotation Yrotation Xrotation
                    JOINT RightHandThumb2
                    {
                      OFFSET -4.703594 -3e-06 2e-06
                      CHANNELS 3 Zrotation Yrotation Xrotation
                      JOINT RightHandThumb3
                      {
                        OFFSET -2.794935 -4e-06 -3e-06
                        CHANNELS 3 Zrotation Yrotation Xrotation
                        JOINT RightHandThumbEnd
                        {
                          OFFSET -3.183852 4e-06 1e-06
                          CHANNELS 3 Zrotation Yrotation Xrotation
                        }
                      }
                    }
                  }
                  JOINT RightHandIndex1
                  {
                    OFFSET -3.253496 -2.33755 -0.127667
                    CHANNELS 3 Zrotation Yrotation Xrotation
                    JOINT RightHandIndex2
                    {
                      OFFSET -6.344434 0.0 0.0
                      CHANNELS 3 Zrotation Yrotation Xrotation
                      JOINT RightHandIndex3
                      {
                        OFFSET -3.654871 0.0 -8e-06
                        CHANNELS 3 Zrotation Yrotation Xrotation
                        JOINT RightHandIndex4
                        {
                          OFFSET -2.327586 -1e-06 0.0
                          CHANNELS 3 Zrotation Yrotation Xrotation
                          JOINT RightHandIndexEnd
                          {
                            OFFSET -2.770001 3e-06 8e-06
                            CHANNELS 3 Zrotation Yrotation Xrotation
                          }
                        }
                      }
                    }
                  }
                  JOINT RightHandMiddle1
                  {
                    OFFSET -3.168223 -0.944764 0.411762
                    CHANNELS 3 Zrotation Yrotation Xrotation
                    JOINT RightHandMiddle2
                    {
                      OFFSET -6.266691 -1e-06 -4e-06
                      CHANNELS 3 Zrotation Yrotation Xrotation
                      JOINT RightHandMiddle3
                      {
                        OFFSET -4.348901 0.0 0.0
                        CHANNELS 3 Zrotation Yrotation Xrotation
                        JOINT RightHandMiddle4
                        {
                          OFFSET -3.00024 2e-06 -4e-06
                          CHANNELS 3 Zrotation Yrotation Xrotation
                          JOINT RightHandMiddleEnd
                          {
                            OFFSET -2.321477 -4e-06 -4e-06
                            CHANNELS 3 Zrotation Yrotation Xrotation
                          }
                        }
                      }
                    }
                  }
                  JOINT RightHandRing1
                  {
                    OFFSET -2.885654 0.293261 -0.119232
                    CHANNELS 3 Zrotation Yrotation Xrotation
                    JOINT RightHandRing2
                    {
                      OFFSET -6.032835 -1e-06 -4e-06
                      CHANNELS 3 Zrotation Yrotation Xrotation
                      JOINT RightHandRing3
                      {
                        OFFSET -4.33881 0.0 -4e-06
                        CHANNELS 3 Zrotation Yrotation Xrotation
                        JOINT RightHandRing4
                        {
                          OFFSET -2.654903 -4e-06 -4e-06
                          CHANNELS 3 Zrotation Yrotation Xrotation
                          JOINT RightHandRingEnd
                          {
                            OFFSET -1.935122 0.0 4e-06
                            CHANNELS 3 Zrotation Yrotation Xrotation
                          }
                        }
                      }
                    }
                  }
                  JOINT RightHandPinky1
                  {
                    OFFSET -2.866241 1.503904 -0.60527
                    CHANNELS 3 Zrotation Yrotation Xrotation
                    JOINT RightHandPinky2
                    {
                      OFFSET -5.553177 -2e-06 0.0
                      CHANNELS 3 Zrotation Yrotation Xrotation
                      JOINT RightHandPinky3
                      {
                        OFFSET -3.062664 -1e-06 -4e-06
                        CHANNELS 3 Zrotation Yrotation Xrotation
                        JOINT RightHandPinky4
                        {
                          OFFSET -1.546529 2e-06 4e-06
                          CHANNELS 3 Zrotation Yrotation Xrotation
                          JOINT RightHandPinkyEnd
                          {
                            OFFSET -1.952341 0.0 -4e-06
                            CHANNELS 3 Zrotation Yrotation Xrotation
                          }
                        }
                      }
                    }
                  }
                }
              }
            }
          }
        }
      }
    }
    JOINT LeftLeg
    {
      OFFSET -8.443107 2.567604 10.043214
      CHANNELS 3 Zrotation Yrotation Xrotation
      JOINT LeftShin
      {
        OFFSET 43.229198 1e-06 -1e-06
        CHANNELS 3 Zrotation Yrotation Xrotation
        JOINT LeftFoot
        {
          OFFSET 42.298611 1e-06 1e-06
          CHANNELS 3 Zrotation Yrotation Xrotation
          JOINT LeftToeBase
          {
            OFFSET 14.165858 1e-06 0.0
            CHANNELS 3 Zrotation Yrotation Xrotation
            JOINT LeftToeEnd
            {
              OFFSET 6.7141 -0.234461 0.0
              CHANNELS 3 Zrotation Yrotation Xrotation
            }
          }
        }
      }
    }
    JOINT RightLeg
    {
      OFFSET -8.303923 2.592729 -10.047278
      CHANNELS 3 Zrotation Yrotation Xrotation
      JOINT RightShin
      {
        OFFSET -43.369682 0.0 1e-06
        CHANNELS 3 Zrotation Yrotation Xrotation
        JOINT RightFoot
        {
          OFFSET -42.260784 4e-06 2e-06
          CHANNELS 3 Zrotation Yrotation Xrotation
          JOINT RightToeBase
          {
            OFFSET -14.222245 -2e-06 -1e-06
            CHANNELS 3 Zrotation Yrotation Xrotation
            JOINT RightToeEnd
            {
              OFFSET -6.660062 0.232574 -2e-06
              CHANNELS 3 Zrotation Yrotation Xrotation
            }
          }
        }
      }
    }
  }
}
MOTION
Frames: 5
Frame Time: 0.03333333333333333
0.0 0.0 0.0 0.0 -0.0 0.0 -6.683345 50.571896 143.176468 91.875954 -64.334747 98.07431 7.001401 -0.569361 0.430557 -6.659147 -0.968707 -0.758863 20.261383 -2.22931 -2.87046 31.950581 5.60773 2.829503 -2.593659 -1.202933 -0.092483 -23.165726 -3.402745 -1.808106 6e-06 0.0 -0.0 -0.247036 0.098732 0.001401 0.085363 0.127548 0.1348 0.05141 0.069882 -0.139345 -25.522984 -76.988617 35.301525 86.175812 -6.420247 -22.075357 31.24398 -1.140704 -0.096927 -23.265123 79.963829 -15.853916 17.636621 -26.322739 52.411213 -19.466667 -14.3956 29.410398 -1e-06 -8.774821 1e-06 16.040289 -18.853598 6.262671 -0.609777 -1.795655 -3.889328 -4.807087 -11.046811 -2.937851 5e-06 -20.976021 -1e-06 -5.019969 -25.033562 -4.031882 5e-06 -0.0 -1e-06 -10.634534 -5.686973 -3.565586 10.573272 -17.922955 -3.113904 4e-06 -13.821213 1e-06 -0.501775 -31.181507 -4.027019 -11.461628 -58.915627 7.673134 -13.982712 -7.150198 -2.875042 13.772731 -8.401495 -3.218243 0.347735 -34.211559 0.771654 -0.963029 -17.733376 2.621021 0.0 -1e-06 -0.0 -17.34642 -20.095221 -4.20178 21.757561 -1.638376 3.866426 1e-06 -6.338825 0.0 -1.697589 -22.591753 -6.194009 -1e-06 -5e-06 -4e-06 129.319046 -77.762138 61.645382 64.263977 16.170271 -31.219921 42.660236 -3.629542 -0.892742 -18.894356 48.776394 -2.045131 22.182119 -20.3759 49.933319 -16.701818 -16.74353 28.47653 -1e-06 -12.690603 -1e-06 17.600155 -17.59708 2.069482 -0.10592 -1.513857 -4.275882 -5.039041 -5.612872 -2.953557 4e-06 -11.020528 -1e-06 -6.111301 -15.895339 -3.840469 -1e-06 -1e-06 -1e-06 -10.283372 -5.680291 -4.341838 11.028296 -11.302406 -2.372632 -1.38427 -14.238585 -6.320123 -0.62544 -26.924198 -3.827599 -3.943757 -50.795109 -3.483949 -13.708527 -7.363479 -3.720939 18.141153 -14.052742 -3.242675 5e-06 -18.787279 -1e-06 -0.429712 -8.456047 2.555504 -1e-06 0.0 -0.0 -15.923538 -20.094492 -5.473584 30.419222 -7.190827 1.735925 3e-06 -8.162929 -0.0 -1.861903 -22.861483 -6.167943 -0.0 -3e-06 -1e-06 116.266281 -3.137071 -2.315914 117.404778 -1.978724 -0.086174 -89.611229 7.627715 -11.298547 -30.25811 2.019441 1.951865 -0.999999 0.0 0.0 -63.093933 -19.670368 6.113645 109.076881 -1.488715 0.271658 -90.212944 14.355921 -5.696495 -54.669067 1.145121 1.219197 -1.000005 -0.0 0.0 
0.0 0.0 0.0 0.0 -0.0 0.0 -6.869596 50.645287 144.27388 92.532616 -64.191772 97.629929 7.16328 -0.882753 0.443558 -6.619283 -1.107124 -0.690559 20.502287 -2.667653 -2.870475 32.028152 5.841101 2.923836 -2.592749 -1.249654 -0.131624 -23.280367 -3.46514 -1.777771 6e-06 0.0 0.0 -0.243958 0.097425 -0.006743 0.020652 0.128197 0.099238 -0.023889 0.064511 -0.120049 -25.024179 -77.478714 34.829884 85.83194 -6.769855 -21.495729 31.680187 -1.058338 -0.128518 -22.108974 80.397903 -14.109425 17.636641 -26.322729 52.41119 -19.466658 -14.395597 29.410389 -1e-06 -8.774822 -1e-06 15.97072 -18.828722 6.32921 -0.609777 -1.795654 -3.889328 -4.80709 -11.046809 -2.93785 3e-06 -20.976015 -0.0 -5.019969 -25.033556 -4.031886 6e-06 -0.0 -1e-06 -10.634537 -5.686971 -3.565588 10.573274 -17.922947 -3.113899 2e-06 -13.821211 2e-06 -0.501779 -31.181505 -4.027014 -11.479725 -58.988983 7.703467 -13.982718 -7.150198 -2.875044 13.772729 -8.40149 -3.21824 0.347731 -34.211544 0.771656 -0.963029 -17.73337 2.62102 -0.0 -1e-06 -0.0 -17.346422 -20.095215 -4.201784 21.757557 -1.638375 3.866429 1e-06 -6.338824 1e-06 -1.697591 -22.591742 -6.194008 -0.0 -5e-06 -4e-06 130.440079 -77.615349 60.511658 64.303345 16.475506 -31.228779 40.134682 -3.418672 -0.672992 -21.703682 48.109474 -5.441376 22.182114 -20.375898 49.933319 -16.701815 -16.743526 28.47653 -1e-06 -12.6906 -1e-06 17.498493 -17.581896 2.144897 -0.10592 -1.513856 -4.275882 -5.039041 -5.61287 -2.953556 5e-06 -11.020525 -1e-06 -6.111295 -15.895328 -3.840471 0.0 -0.0 -1e-06 -10.283369 -5.680285 -4.341839 11.028294 -11.302402 -2.372633 -1.384268 -14.238583 -6.32012 -0.625438 -26.924191 -3.827601 -3.998762 -50.807976 -3.432556 -13.708525 -7.363474 -3.720939 18.14115 -14.052737 -3.242674 5e-06 -18.787271 -0.0 -0.429712 -8.456043 2.555504 0.0 -1e-06 -0.0 -15.923534 -20.094479 -5.473586 30.41921 -7.190828 1.735925 3e-06 -8.162922 0.0 -1.861903 -22.861467 -6.167941 -0.0 -3e-06 -0.0 111.07222 -3.384766 -2.320131 123.151314 -1.377978 0.103228 -92.67598 8.124049 -11.16789 -30.655287 2.019414 1.895462 -1.0 1e-06 0.0 -61.540127 -19.997959 5.276179 107.665649 -1.596688 0.27965 -89.805046 14.317736 -5.302708 -54.265057 1.134528 1.192752 -1.000003 -0.0 -0.0 
0.0 0.0 0.0 0.0 -0.0 0.0 -7.026352 50.687279 145.405746 93.450691 -63.939804 96.808105 7.298697 -1.197724 0.445283 -6.595658 -1.281727 -0.638495 20.882032 -3.14113 -2.908636 32.118114 5.850209 2.989875 -2.600165 -1.296065 -0.143801 -23.455297 -3.487388 -1.71395 6e-06 -0.0 0.0 -0.239619 0.097596 -0.014388 -0.038135 0.129923 0.070518 -0.089644 0.061763 -0.107634 -24.644072 -78.031212 34.523357 85.309731 -7.100994 -21.200567 32.02076 -1.085321 -0.151353 -19.502558 80.771843 -11.11706 17.636625 -26.322731 52.411201 -19.466663 -14.3956 29.410395 -1e-06 -8.774822 0.0 15.876414 -18.809071 6.344045 -0.609776 -1.795654 -3.889328 -4.807088 -11.04681 -2.937849 5e-06 -20.976017 -1e-06 -5.019968 -25.033558 -4.031885 6e-06 -0.0 0.0 -10.634533 -5.686972 -3.565588 10.573275 -17.922951 -3.113902 4e-06 -13.821208 1e-06 -0.501773 -31.181501 -4.02702 -11.480285 -58.945236 7.678493 -13.982714 -7.1502 -2.875043 13.772727 -8.401492 -3.218242 0.347736 -34.211544 0.771651 -0.963027 -17.73337 2.621019 -0.0 -0.0 -0.0 -17.346416 -20.095217 -4.201784 21.757557 -1.638376 3.866426 2e-06 -6.338825 1e-06 -1.697589 -22.591747 -6.194008 -1e-06 -5e-06 -3e-06 130.773376 -77.521683 60.315762 64.576164 16.304733 -31.11895 38.749432 -3.127042 -0.466343 -23.699097 48.09552 -7.943611 22.182117 -20.375896 49.933331 -16.701817 -16.74353 28.47654 -1e-06 -12.690604 -1e-06 17.466513 -17.642725 2.177892 -0.10592 -1.513858 -4.275882 -5.039041 -5.612873 -2.953557 4e-06 -11.020528 -2e-06 -6.111298 -15.895338 -3.840472 -0.0 1e-06 -0.0 -10.283371 -5.680292 -4.341839 11.028295 -11.302409 -2.372633 -1.384269 -14.238588 -6.320121 -0.625438 -26.924198 -3.827605 -4.083622 -50.821495 -3.452166 -13.708526 -7.363479 -3.720939 18.14115 -14.052742 -3.242676 6e-06 -18.787275 -3e-06 -0.429712 -8.456045 2.555502 -0.0 0.0 0.0 -15.923536 -20.094492 -5.473586 30.419218 -7.190827 1.735925 3e-06 -8.162927 -1e-06 -1.861903 -22.861479 -6.167945 0.0 -3e-06 -1e-06 105.987961 -3.706539 -2.265099 127.84864 -0.832706 0.339549 -95.658463 8.947434 -11.001187 -31.036797 2.000769 1.823601 -0.999998 0.0 1e-06 -59.88102 -20.272991 4.516664 106.215286 -1.81395 0.276324 -89.45591 14.35081 -4.878074 -54.057285 1.128048 1.166659 -1.000003 0.0 0.0 
0.0 0.0 0.0 0.0 -0.0 0.0 -7.133842 50.706493 146.530121 94.619789 -63.534801 95.60601 7.433757 -1.526132 0.437489 -6.572027 -1.461723 -0.581219 21.381645 -3.635904 -2.973414 32.233311 5.68757 3.02456 -2.61006 -1.344764 -0.122514 -23.61739 -3.508058 -1.64211 6e-06 0.0 -0.0 -0.234197 0.104171 -0.021592 -0.081835 0.135848 0.049661 -0.13604 0.068684 -0.103226 -24.378757 -78.64048 34.385517 84.65683 -7.439984 -21.331505 32.234295 -1.243299 -0.208112 -14.65651 81.012459 -6.258561 17.636629 -26.322725 52.411182 -19.466654 -14.395597 29.410378 0.0 -8.774819 -2e-06 15.748938 -18.780632 6.329254 -0.609777 -1.795654 -3.889326 -4.807089 -11.046807 -2.93785 4e-06 -20.976011 -0.0 -5.019969 -25.033548 -4.031884 5e-06 -0.0 0.0 -10.634536 -5.686969 -3.565586 10.573274 -17.922945 -3.113899 2e-06 -13.821204 1e-06 -0.501777 -31.181494 -4.027017 -11.457614 -58.846622 7.657944 -13.982714 -7.150198 -2.875042 13.772728 -8.401489 -3.218239 0.347735 -34.211536 0.771655 -0.963029 -17.733366 2.62102 0.0 -0.0 -1e-06 -17.346422 -20.095213 -4.201782 21.757559 -1.638375 3.866429 0.0 -6.338824 1e-06 -1.697591 -22.591743 -6.194005 -1e-06 -5e-06 -3e-06 130.912292 -77.456024 60.399117 65.121826 15.88116 -31.012897 37.901337 -2.897509 -0.300606 -25.001751 48.62122 -9.766756 22.182121 -20.375893 49.933327 -16.701813 -16.743528 28.476532 -1e-06 -12.690601 -1e-06 17.480619 -17.73138 2.188053 -0.105919 -1.513856 -4.275882 -5.039043 -5.612872 -2.953557 4e-06 -11.020519 -3e-06 -6.111296 -15.895326 -3.840475 0.0 1e-06 0.0 -10.283372 -5.680288 -4.34184 11.028296 -11.302404 -2.372633 -1.38427 -14.238582 -6.320123 -0.625436 -26.924187 -3.827603 -4.156977 -50.851913 -3.50914 -13.708526 -7.363477 -3.720941 18.141151 -14.052737 -3.242674 7e-06 -18.78727 -2e-06 -0.429711 -8.456041 2.555504 0.0 1e-06 1e-06 -15.923539 -20.094482 -5.47359 30.419218 -7.190827 1.735929 3e-06 -8.162922 -1e-06 -1.861902 -22.861467 -6.167943 1e-06 -2e-06 -2e-06 101.205612 -4.07987 -2.065262 131.42009 -0.388115 0.558112 -98.23291 10.220826 -10.912692 -31.179729 1.961075 1.76118 -0.999998 0.0 -0.0 -58.135307 -20.519367 3.924101 104.771606 -2.098653 0.277094 -89.23526 14.463539 -4.364981 -54.035828 1.122635 1.136764 -1.000002 0.0 0.0 
0.0 0.0 0.0 0.0 -0.0 0.0 -7.181748 50.682796 147.664017 95.885284 -62.934551 94.050438 7.578146 -1.865468 0.445011 -6.533292 -1.605861 -0.487113 21.95229 -4.142808 -3.01062 32.405727 5.388765 3.046079 -2.614181 -1.406838 -0.065725 -23.775927 -3.587093 -1.556363 6e-06 -1e-06 -0.0 -0.228471 0.116003 -0.027317 -0.099643 0.138778 0.04137 -0.15661 0.090062 -0.108698 -24.503609 -79.242653 34.685246 83.941589 -7.912274 -21.908344 32.421062 -1.472925 -0.295111 -7.689229 81.090889 0.511747 17.636631 -26.322733 52.411213 -19.466663 -14.395598 29.410398 -2e-06 -8.774822 -2e-06 15.620127 -18.744085 6.311648 -0.609777 -1.795654 -3.889329 -4.807087 -11.046814 -2.937852 3e-06 -20.976021 -1e-06 -5.019968 -25.03356 -4.031888 6e-06 0.0 1e-06 -10.634535 -5.686972 -3.56559 10.573275 -17.922955 -3.113904 3e-06 -13.821213 1e-06 -0.501774 -31.181507 -4.02702 -11.417991 -58.793053 7.681931 -13.982718 -7.150201 -2.875045 13.772731 -8.401495 -3.218241 0.347736 -34.211555 0.771651 -0.963028 -17.733374 2.621019 -0.0 -0.0 1e-06 -17.346422 -20.095221 -4.201785 21.757559 -1.638376 3.866429 2e-06 -6.338824 1e-06 -1.697589 -22.591753 -6.19401 0.0 -4e-06 -2e-06 131.138336 -77.406181 60.414822 65.970688 15.315109 -30.764627 37.205303 -2.723506 -0.198931 -25.9133 49.439365 -11.344022 22.182121 -20.375891 49.933315 -16.701807 -16.743525 28.476526 -1e-06 -12.690597 -1e-06 17.493193 -17.831116 2.208807 -0.105919 -1.513856 -4.27588 -5.039042 -5.612873 -2.953557 3e-06 -11.020519 -3e-06 -6.111294 -15.895328 -3.840473 1e-06 1e-06 1e-06 -10.283369 -5.680285 -4.341839 11.028291 -11.302406 -2.372632 -1.38427 -14.238583 -6.320121 -0.625439 -26.924191 -3.827602 -4.217716 -50.928791 -3.553629 -13.708524 -7.363477 -3.720941 18.141146 -14.052739 -3.242671 5e-06 -18.78727 -1e-06 -0.429712 -8.456044 2.555504 -0.0 0.0 0.0 -15.923534 -20.094482 -5.473587 30.419201 -7.190824 1.735929 2e-06 -8.162925 -0.0 -1.861901 -22.861469 -6.167943 0.0 -3e-06 -1e-06 96.966965 -4.567849 -1.623432 133.954239 -0.064986 0.718561 -100.159645 11.854741 -11.081481 -31.29781 1.912366 1.727974 -0.999996 -1e-06 -0.0 -56.231838 -20.593859 3.5514 103.341171 -2.425869 0.277331 -89.449951 14.598326 -3.850537 -54.138824 1.113477 1.093398 -1.000004 0.0 0.0 
